<svg xmlns="http://www.w3.org/2000/svg" width="223" height="409">
         <defs>
            <style type="text/css">
    @namespace "http://www.w3.org/2000/svg";
    .line                 {fill: none; stroke: #332900; stroke-width: 1;}
    .bold-line            {stroke: #141000; shape-rendering: crispEdges; stroke-width: 2;}
    .thin-line            {stroke: #1F1800; shape-rendering: crispEdges}
    .filled               {fill: #332900; stroke: none;}
    text.terminal         {font-family: Verdana, Sans-serif;
                            font-size: 12px;
                            fill: #141000;
                            font-weight: bold;
                          }
    text.nonterminal      {font-family: Verdana, Sans-serif;
                            font-size: 12px;
                            fill: #1A1400;
                            font-weight: normal;
                          }
    text.regexp           {font-family: Verdana, Sans-serif;
                            font-size: 12px;
                            fill: #1F1800;
                            font-weight: normal;
                          }
    rect, circle, polygon {fill: #332900; stroke: #332900;}
    rect.terminal         {fill: #FFDB4D; stroke: #332900; stroke-width: 1;}
    rect.nonterminal      {fill: #FFEC9E; stroke: #332900; stroke-width: 1;}
    rect.text             {fill: none; stroke: none;}
    polygon.regexp        {fill: #FFF4C7; stroke: #332900; stroke-width: 1;}
  </style>
         </defs>
         <polygon points="9 403 1 399 1 407"/>
         <polygon points="17 403 9 399 9 407"/><a xmlns:xlink="http://www.w3.org/1999/xlink" xlink:href="#pragma" xlink:title="pragma">
            <rect x="51" y="355" width="68" height="32"/>
            <rect x="49" y="353" width="68" height="32" class="nonterminal"/>
            <text class="nonterminal" x="59" y="373">pragma</text></a><a xmlns:xlink="http://www.w3.org/1999/xlink" xlink:href="#functor_decl" xlink:title="functor_decl">
            <rect x="51" y="311" width="98" height="32"/>
            <rect x="49" y="309" width="98" height="32" class="nonterminal"/>
            <text class="nonterminal" x="59" y="329">functor_decl</text></a><a xmlns:xlink="http://www.w3.org/1999/xlink" xlink:href="#component_decl" xlink:title="component_decl">
            <rect x="51" y="267" width="124" height="32"/>
            <rect x="49" y="265" width="124" height="32" class="nonterminal"/>
            <text class="nonterminal" x="59" y="285">component_decl</text></a><a xmlns:xlink="http://www.w3.org/1999/xlink" xlink:href="#component_init" xlink:title="component_init">
            <rect x="51" y="223" width="118" height="32"/>
            <rect x="49" y="221" width="118" height="32" class="nonterminal"/>
            <text class="nonterminal" x="59" y="241">component_init</text></a><a xmlns:xlink="http://www.w3.org/1999/xlink" xlink:href="#directive" xlink:title="directive">
            <rect x="51" y="179" width="74" height="32"/>
            <rect x="49" y="177" width="74" height="32" class="nonterminal"/>
            <text class="nonterminal" x="59" y="197">directive</text></a><a xmlns:xlink="http://www.w3.org/1999/xlink" xlink:href="#rule" xlink:title="rule">
            <rect x="51" y="135" width="44" height="32"/>
            <rect x="49" y="133" width="44" height="32" class="nonterminal"/>
            <text class="nonterminal" x="59" y="153">rule</text></a><a xmlns:xlink="http://www.w3.org/1999/xlink" xlink:href="#fact" xlink:title="fact">
            <rect x="51" y="91" width="42" height="32"/>
            <rect x="49" y="89" width="42" height="32" class="nonterminal"/>
            <text class="nonterminal" x="59" y="109">fact</text></a><a xmlns:xlink="http://www.w3.org/1999/xlink" xlink:href="#relation_decl" xlink:title="relation_decl">
            <rect x="51" y="47" width="102" height="32"/>
            <rect x="49" y="45" width="102" height="32" class="nonterminal"/>
            <text class="nonterminal" x="59" y="65">relation_decl</text></a><a xmlns:xlink="http://www.w3.org/1999/xlink" xlink:href="#type_decl" xlink:title="type_decl">
            <rect x="51" y="3" width="82" height="32"/>
            <rect x="49" y="1" width="82" height="32" class="nonterminal"/>
            <text class="nonterminal" x="59" y="21">type_decl</text></a><svg:path xmlns:svg="http://www.w3.org/2000/svg" class="line" d="m17 403 h2 m20 0 h10 m0 0 h134 m-164 0 l20 0 m-1 0 q-9 0 -9 -10 l0 -14 q0 -10 10 -10 m144 34 l20 0 m-20 0 q10 0 10 -10 l0 -14 q0 -10 -10 -10 m-144 0 h10 m68 0 h10 m0 0 h56 m-154 10 l0 -44 q0 -10 10 -10 m154 54 l0 -44 q0 -10 -10 -10 m-144 0 h10 m98 0 h10 m0 0 h26 m-154 10 l0 -44 q0 -10 10 -10 m154 54 l0 -44 q0 -10 -10 -10 m-144 0 h10 m124 0 h10 m-154 10 l0 -44 q0 -10 10 -10 m154 54 l0 -44 q0 -10 -10 -10 m-144 0 h10 m118 0 h10 m0 0 h6 m-154 10 l0 -44 q0 -10 10 -10 m154 54 l0 -44 q0 -10 -10 -10 m-144 0 h10 m74 0 h10 m0 0 h50 m-154 10 l0 -44 q0 -10 10 -10 m154 54 l0 -44 q0 -10 -10 -10 m-144 0 h10 m44 0 h10 m0 0 h80 m-154 10 l0 -44 q0 -10 10 -10 m154 54 l0 -44 q0 -10 -10 -10 m-144 0 h10 m42 0 h10 m0 0 h82 m-154 10 l0 -44 q0 -10 10 -10 m154 54 l0 -44 q0 -10 -10 -10 m-144 0 h10 m102 0 h10 m0 0 h22 m-154 10 l0 -44 q0 -10 10 -10 m154 54 l0 -44 q0 -10 -10 -10 m-144 0 h10 m82 0 h10 m0 0 h42 m23 386 h-3"/>
         <polygon points="213 403 221 399 221 407"/>
         <polygon points="213 403 205 399 205 407"/></svg>

